<svg width="252" height="30" viewBox="0 0 252 30" fill="none" xmlns="http://www.w3.org/2000/svg">
<path d="M39.26 10.4H42.824V20.174H48.836V23H39.26V10.4ZM60.3623 20.246V23H50.2463V10.4H60.1283V13.154H53.7743V15.278H59.3723V17.942H53.7743V20.246H60.3623ZM68.6045 23.252C67.2845 23.252 66.0965 22.976 65.0405 22.424C63.9965 21.86 63.1745 21.08 62.5745 20.084C61.9745 19.088 61.6745 17.96 61.6745 16.7C61.6745 15.44 61.9745 14.312 62.5745 13.316C63.1745 12.32 63.9965 11.546 65.0405 10.994C66.0965 10.43 67.2845 10.148 68.6045 10.148C69.7565 10.148 70.7945 10.352 71.7185 10.76C72.6425 11.168 73.4105 11.756 74.0225 12.524L71.7545 14.576C70.9385 13.592 69.9485 13.1 68.7845 13.1C68.1005 13.1 67.4885 13.25 66.9485 13.55C66.4205 13.85 66.0065 14.276 65.7065 14.828C65.4185 15.368 65.2745 15.992 65.2745 16.7C65.2745 17.408 65.4185 18.038 65.7065 18.59C66.0065 19.13 66.4205 19.55 66.9485 19.85C67.4885 20.15 68.1005 20.3 68.7845 20.3C69.9485 20.3 70.9385 19.808 71.7545 18.824L74.0225 20.876C73.4105 21.644 72.6425 22.232 71.7185 22.64C70.7945 23.048 69.7565 23.252 68.6045 23.252ZM78.1881 13.226H74.3181V10.4H85.6041V13.226H81.7521V23H78.1881V13.226ZM92.4399 19.652H90.4959V23H86.9319V10.4H92.6919C93.8319 10.4 94.8219 10.592 95.6619 10.976C96.5019 11.348 97.1499 11.888 97.6059 12.596C98.0619 13.292 98.2899 14.114 98.2899 15.062C98.2899 15.974 98.0739 16.772 97.6419 17.456C97.2219 18.128 96.6159 18.656 95.8239 19.04L98.5419 23H94.7259L92.4399 19.652ZM94.6899 15.062C94.6899 14.474 94.5039 14.018 94.1319 13.694C93.7599 13.37 93.2079 13.208 92.4759 13.208H90.4959V16.898H92.4759C93.2079 16.898 93.7599 16.742 94.1319 16.43C94.5039 16.106 94.6899 15.65 94.6899 15.062ZM106.61 23.252C105.278 23.252 104.078 22.97 103.01 22.406C101.954 21.842 101.12 21.062 100.508 20.066C99.9081 19.07 99.6081 17.948 99.6081 16.7C99.6081 15.452 99.9081 14.33 100.508 13.334C101.12 12.338 101.954 11.558 103.01 10.994C104.078 10.43 105.278 10.148 106.61 10.148C107.942 10.148 109.136 10.43 110.192 10.994C111.26 11.558 112.094 12.338 112.694 13.334C113.306 14.33 113.612 15.452 113.612 16.7C113.612 17.948 113.306 19.07 112.694 20.066C112.094 21.062 111.26 21.842 110.192 22.406C109.136 22.97 107.942 23.252 106.61 23.252ZM106.61 20.3C107.246 20.3 107.822 20.15 108.338 19.85C108.854 19.55 109.262 19.13 109.562 18.59C109.862 18.038 110.012 17.408 110.012 16.7C110.012 15.992 109.862 15.368 109.562 14.828C109.262 14.276 108.854 13.85 108.338 13.55C107.822 13.25 107.246 13.1 106.61 13.1C105.974 13.1 105.398 13.25 104.882 13.55C104.366 13.85 103.958 14.276 103.658 14.828C103.358 15.368 103.208 15.992 103.208 16.7C103.208 17.408 103.358 18.038 103.658 18.59C103.958 19.13 104.366 19.55 104.882 19.85C105.398 20.15 105.974 20.3 106.61 20.3Z" fill="#D5504A"/>
<path d="M121.761 23.252C120.441 23.252 119.253 22.976 118.197 22.424C117.153 21.86 116.331 21.08 115.731 20.084C115.131 19.088 114.831 17.96 114.831 16.7C114.831 15.44 115.131 14.312 115.731 13.316C116.331 12.32 117.153 11.546 118.197 10.994C119.253 10.43 120.441 10.148 121.761 10.148C122.913 10.148 123.951 10.352 124.875 10.76C125.799 11.168 126.567 11.756 127.179 12.524L124.911 14.576C124.095 13.592 123.105 13.1 121.941 13.1C121.257 13.1 120.645 13.25 120.105 13.55C119.577 13.85 119.163 14.276 118.863 14.828C118.575 15.368 118.431 15.992 118.431 16.7C118.431 17.408 118.575 18.038 118.863 18.59C119.163 19.13 119.577 19.55 120.105 19.85C120.645 20.15 121.257 20.3 121.941 20.3C123.105 20.3 124.095 19.808 124.911 18.824L127.179 20.876C126.567 21.644 125.799 22.232 124.875 22.64C123.951 23.048 122.913 23.252 121.761 23.252ZM134.276 19.652H132.332V23H128.768V10.4H134.528C135.668 10.4 136.658 10.592 137.498 10.976C138.338 11.348 138.986 11.888 139.442 12.596C139.898 13.292 140.126 14.114 140.126 15.062C140.126 15.974 139.91 16.772 139.478 17.456C139.058 18.128 138.452 18.656 137.66 19.04L140.378 23H136.562L134.276 19.652ZM136.526 15.062C136.526 14.474 136.34 14.018 135.968 13.694C135.596 13.37 135.044 13.208 134.312 13.208H132.332V16.898H134.312C135.044 16.898 135.596 16.742 135.968 16.43C136.34 16.106 136.526 15.65 136.526 15.062ZM150.534 20.552H145.206L144.216 23H140.58L146.142 10.4H149.652L155.232 23H151.524L150.534 20.552ZM149.49 17.924L147.87 13.892L146.25 17.924H149.49ZM168.23 10.4V23H165.296L159.734 16.286V23H156.242V10.4H159.176L164.738 17.114V10.4H168.23ZM180.86 20.246V23H170.744V10.4H180.626V13.154H174.272V15.278H179.87V17.942H174.272V20.246H180.86Z" fill="#4595EC"/>
<path d="M37.6755 16.6986L38.3883 19.3587L28.617 21.977L25.3559 9.80628L34.9011 7.24864L35.6139 9.90879L29.4764 11.5533L30.0262 13.605L35.4334 12.1561L36.1229 14.7293L30.7157 16.1782L31.312 18.4037L37.6755 16.6986Z" fill="#D5504A"/>
<path d="M19.8416 6.70301L22.2621 9.15763L29.1442 2.47823L26.6998 0L19.8416 6.70301Z" fill="black"/>
<path d="M28.6766 9.04115L30.9169 8.41643L30.2693 5.99985L28.0061 6.63071L28.6766 9.04115Z" fill="black"/>
<path d="M28 2.0625L29.3214 7.14664" stroke="black" stroke-miterlimit="10"/>
<path d="M0.690674 11.6361L0.761867 14.5155L6.62345 14.4683L6.48107 9.34668" fill="black"/>
<path d="M16.0446 4.57861L20.1975 9.72388L24.4217 9.70028L24.4691 14.3499L9.09136 14.4915L8.83032 4.64942L16.0446 4.57861Z" fill="black"/>
<path d="M0.0261363 19.5191C0.0973296 21.3601 1.66358 22.8235 3.51461 22.7999C9.02023 22.7526 14.5259 22.7054 20.0552 22.6582C21.9062 22.6346 23.4013 21.1713 23.4013 19.3303C23.4013 19.1887 23.4013 19.0707 23.4013 18.9291C23.3776 17.0645 21.8113 15.6012 19.9603 15.6248C14.4072 15.672 8.85411 15.7192 3.30103 15.7664C1.45 15.7664 -0.0687882 17.2533 0.00240513 19.1179C0.00240513 19.2359 0.00240513 19.3775 0.0261363 19.5191Z" fill="black"/>
</svg>
