<svg width="21" height="21" viewBox="0 0 21 21" fill="none" xmlns="http://www.w3.org/2000/svg">
<g clip-path="url(#clip0)">
<path d="M15.6165 8.64573C15.6165 8.64573 16.4658 7.99995 15.8193 7.35417C15.1729 6.70839 14.5444 7.54174 14.5444 7.54174L8.04574 14.0418C8.04574 14.0418 6.52369 16.0061 5.3664 14.8184C4.2105 13.6293 6.14231 12.1383 6.14231 12.1383L14.6634 3.61791C14.6634 3.61791 16.652 1.42724 18.5215 3.29537C20.3883 5.16419 18.1914 7.1569 18.1914 7.1569L8.61676 16.7315C8.61676 16.7315 5.55328 20.2705 2.71752 17.434C-0.118239 14.5976 3.45536 11.5687 3.45536 11.5687L10.7244 4.29761C10.7244 4.29761 11.5384 3.61791 10.9286 3.00605C10.316 2.39487 9.63769 3.21023 9.63769 3.21023L1.29653 11.5514C1.29653 11.5514 -1.85209 15.0046 1.66406 18.52C5.18021 22.0376 8.63545 18.8889 8.63545 18.8889L20.0996 7.42338C20.0996 7.42338 22.3934 4.89356 19.6587 2.15746C16.924 -0.578627 14.3935 1.71518 14.3935 1.71518L4.52889 11.5784C4.52889 11.5784 2.00253 13.6334 4.29494 15.9244C6.58736 18.2182 8.605 15.6545 8.605 15.6545L15.6165 8.64573Z" fill="#BABABA"/>
</g>
<defs>
<clipPath id="clip0">
<rect width="21" height="21" fill="white"/>
</clipPath>
</defs>
</svg>
