<svg width="43" height="43" viewBox="0 0 43 43" fill="none" xmlns="http://www.w3.org/2000/svg">
<g clip-path="url(#clip0)">
<path d="M6.67773 35.2675V42.3282H36.3251V35.2675H6.67773Z" fill="black"/>
<path d="M21.5016 16.9135C15.2653 16.9135 10.208 21.9708 10.208 28.2068V35.2675H21.5016V16.9135Z" fill="#B93939"/>
<path d="M32.7948 28.2068C32.7948 21.9708 27.7374 16.9135 21.5015 16.9135V19.7352C26.1799 19.7414 29.9668 23.5283 29.973 28.2068C29.9668 23.5283 26.1799 19.7414 21.5015 19.7352V35.2675H32.7948V28.2068Z" fill="#E35A5A"/>
<path d="M21.5016 13.383C21.1105 13.383 20.793 13.0655 20.793 12.6747V1.3811C20.793 0.99029 21.1105 0.672729 21.5016 0.672729C21.8924 0.672729 22.21 0.99029 22.21 1.3811V12.6747C22.21 13.0655 21.8924 13.383 21.5016 13.383Z" fill="#E35A5A"/>
<path d="M15.1492 15.081C14.8986 15.081 14.6605 14.9467 14.5384 14.7267L8.8886 4.94817C8.6932 4.61224 8.80295 4.17849 9.13888 3.98309C9.47482 3.78768 9.90857 3.89743 10.104 4.23337L10.1102 4.23957L15.7599 14.0243C15.9553 14.3602 15.8394 14.794 15.5035 14.9894C15.3935 15.0505 15.2713 15.081 15.1492 15.081Z" fill="#E35A5A"/>
<path d="M10.4952 19.7352C10.373 19.7352 10.2509 19.7047 10.1409 19.6436L0.356139 13.9938C0.0202077 13.7984 -0.101949 13.3709 0.0934542 13.0287C0.288858 12.6868 0.716407 12.5707 1.05854 12.7663L1.06451 12.7723L10.8492 18.422C11.1852 18.6174 11.3014 19.0512 11.106 19.3871C10.9776 19.6009 10.7454 19.7352 10.4952 19.7352Z" fill="#E35A5A"/>
<path d="M32.5079 19.7352C32.1171 19.7352 31.7993 19.4176 31.7993 19.0268C31.7993 18.7763 31.9339 18.5442 32.1536 18.416L41.9383 12.7663C42.2743 12.5706 42.708 12.6806 42.9034 13.0166C43.0988 13.3525 42.9891 13.7862 42.6532 13.9816L42.647 13.9878L32.8622 19.6436C32.7522 19.7046 32.6301 19.7352 32.5079 19.7352Z" fill="#E35A5A"/>
<path d="M27.8539 15.0811C27.4628 15.0811 27.1453 14.7635 27.1515 14.3725C27.1515 14.2503 27.182 14.1282 27.2431 14.0184L32.8928 4.23344C33.0882 3.8975 33.522 3.78155 33.8579 3.98316C34.1938 4.17856 34.3036 4.60611 34.1144 4.94204L28.4646 14.7268C28.3425 14.9467 28.1103 15.0873 27.8539 15.0811Z" fill="#E35A5A"/>
<path d="M29.9727 28.9152C29.5819 28.9152 29.2641 28.5977 29.2641 28.2066C29.2582 23.919 25.7827 20.4437 21.495 20.4375C21.1042 20.4375 20.7866 20.1199 20.7866 19.7291C20.7866 19.3381 21.1042 19.0205 21.495 19.0205C26.5645 19.0267 30.6689 23.1311 30.6751 28.2007C30.6813 28.5977 30.3635 28.9152 29.9727 28.9152Z" fill="#E6E7E8"/>
</g>
<defs>
<clipPath id="clip0">
<rect width="43" height="43" fill="white"/>
</clipPath>
</defs>
</svg>
